<svg width="16" height="16" viewBox="0 0 16 16" fill="none" xmlns="http://www.w3.org/2000/svg">
<path d="M4.64062 13.3438C3.53606 13.3438 2.64062 12.4483 2.64062 11.3438C2.64062 10.2392 3.53606 9.34375 4.64062 9.34375C5.74519 9.34375 6.64062 10.2392 6.64062 11.3438C6.64062 12.4483 5.74519 13.3438 4.64062 13.3438Z" stroke="#777777" stroke-linecap="round" stroke-linejoin="round"/>
<path d="M15.3066 11.3438H6.97331" stroke="#777777" stroke-linecap="round" stroke-linejoin="round"/>
<path d="M2.64062 11.3438H0.749317" stroke="#777777" stroke-linecap="round" stroke-linejoin="round"/>
<path d="M11.416 6.67708C12.5206 6.67708 13.416 5.78165 13.416 4.67708C13.416 3.57251 12.5206 2.67708 11.416 2.67708C10.3114 2.67708 9.41602 3.57251 9.41602 4.67708C9.41602 5.78165 10.3114 6.67708 11.416 6.67708Z" stroke="#777777" stroke-linecap="round" stroke-linejoin="round"/>
<path d="M0.749023 4.67708H9.08236" stroke="#777777" stroke-linecap="round" stroke-linejoin="round"/>
<path d="M13.416 4.67708H15.3073" stroke="#777777" stroke-linecap="round" stroke-linejoin="round"/>
</svg>
