<svg width="41" height="40" viewBox="0 0 41 40" fill="none" xmlns="http://www.w3.org/2000/svg">
<path d="M7.15865 32.4684C6.98327 32.7841 7.04114 33.1782 7.29987 33.4301C7.55861 33.682 7.95405 33.7294 8.26496 33.5457L12.2708 31.1786C14.1636 31.8552 16.2461 32.2284 18.4294 32.2284C26.9276 32.2284 34.0866 26.5052 34.0866 19.1426C34.0866 11.7801 26.9276 6.05693 18.4294 6.05693C9.93121 6.05693 2.77227 11.7801 2.77227 19.1426C2.77227 23.3876 5.17765 27.1099 8.81995 29.4781L7.15865 32.4684Z" stroke="#333333" stroke-width="1.6" stroke-linejoin="round"/>
<path d="M32.3816 13.2292C35.9399 14.9411 38.334 18.1407 38.334 21.8053C38.334 25.1555 36.3332 28.117 33.2711 29.9085L34.8999 32.8571L31.4276 30.7936C29.9078 31.3791 28.2144 31.7059 26.4292 31.7059C25.3586 31.7059 25.321 31.5883 24.334 31.3679" stroke="#333333" stroke-width="1.6" stroke-linecap="round" stroke-linejoin="round"/>
<circle cx="13.5715" cy="19.0476" r="0.952381" fill="#2C2C2C"/>
<circle cx="18.3332" cy="19.0476" r="0.952381" fill="#2C2C2C"/>
<circle cx="23.095" cy="19.0476" r="0.952381" fill="#2C2C2C"/>
</svg>
