<svg width="40" height="39" viewBox="0 0 40 39" fill="none" xmlns="http://www.w3.org/2000/svg">
<path d="M29.75 14.8999C29.75 12.314 28.7228 9.83409 26.8943 8.00561C25.0658 6.17713 22.5859 5.1499 20 5.1499C17.4141 5.1499 14.9342 6.17713 13.1057 8.00561C11.2772 9.83409 10.25 12.314 10.25 14.8999C10.25 26.2749 5.375 29.5249 5.375 29.5249H34.625C34.625 29.5249 29.75 26.2749 29.75 14.8999Z" stroke="#333333" stroke-width="1.56" stroke-linecap="round" stroke-linejoin="round"/>
<path d="M24.4573 29.7571C24.4573 32.2187 22.4617 34.2142 20.0001 34.2142C17.5385 34.2142 15.543 32.2187 15.543 29.7571" stroke="#333333" stroke-width="1.56"/>
<path d="M29.6458 5.84861C30.6247 6.32296 31.4398 7.07864 31.9867 8.01891C32.5337 8.95919 32.7876 10.0413 32.7161 11.1267M30.7637 1.62158C32.8451 2.42694 34.5909 3.91611 35.7143 5.84457C36.8377 7.77304 37.272 10.0262 36.9459 12.234" stroke="#333333" stroke-width="1.56" stroke-linecap="round" stroke-linejoin="round"/>
<path d="M10.3894 5.84861C9.41046 6.32296 8.59537 7.07864 8.04841 8.01891C7.50145 8.95919 7.24752 10.0413 7.31911 11.1267M9.27148 1.62158C7.19004 2.42694 5.44429 3.91611 4.32088 5.84457C3.19747 7.77304 2.76317 10.0262 3.08928 12.234" stroke="#333333" stroke-width="1.56" stroke-linecap="round" stroke-linejoin="round"/>
</svg>
