<svg width="86" height="86" viewBox="0 0 86 86" fill="none" xmlns="http://www.w3.org/2000/svg">
<path d="M14.233 69.8359C14.0138 70.2305 14.0861 70.7231 14.4095 71.038C14.7329 71.3529 15.2272 71.4121 15.6159 71.1825L24.4124 65.9845C28.4399 67.4653 32.8927 68.2858 37.5714 68.2858C55.3739 68.2858 70.1429 56.319 70.1429 41.1787C70.1429 26.0384 55.3739 14.0715 37.5714 14.0715C19.769 14.0715 5 26.0384 5 41.1787C5 50.1268 10.1924 57.996 18.0835 62.9049L14.233 69.8359Z" stroke="#2C2C2C" stroke-width="2" stroke-linejoin="round"/>
<path d="M67.2203 28.6123C74.7818 32.25 79.8691 39.0491 79.8691 46.8364C79.8691 53.9555 75.6174 60.2487 69.1105 64.0557L72.5718 70.3215L65.1931 65.9365C61.9634 67.1807 58.365 67.8751 54.5715 67.8751C52.2964 67.8751 50.0915 67.6254 47.9941 67.157" stroke="#2C2C2C" stroke-width="2" stroke-linecap="round" stroke-linejoin="round"/>
<circle cx="27.393" cy="40.9762" r="2.02381" fill="#2C2C2C"/>
<circle cx="37.5121" cy="40.9762" r="2.02381" fill="#2C2C2C"/>
<circle cx="47.6312" cy="40.9762" r="2.02381" fill="#2C2C2C"/>
</svg>
