<svg width="79" height="64" viewBox="0 0 79 64" fill="none" xmlns="http://www.w3.org/2000/svg">
<path d="M56.5 28.3333C56.5 23.692 54.6563 19.2408 51.3744 15.9589C48.0925 12.677 43.6413 10.8333 39 10.8333C34.3587 10.8333 29.9075 12.677 26.6256 15.9589C23.3437 19.2408 21.5 23.692 21.5 28.3333C21.5 48.7499 12.75 54.5833 12.75 54.5833H65.25C65.25 54.5833 56.5 48.7499 56.5 28.3333Z" stroke="#2C2C2C" stroke-width="2" stroke-linecap="round" stroke-linejoin="round"/>
<path d="M47 55C47 59.4183 43.4183 63 39 63C34.5817 63 31 59.4183 31 55" stroke="#2C2C2C" stroke-width="2"/>
<path d="M60.9813 8.58697C62.7383 9.43837 64.2013 10.7947 65.1831 12.4824C66.1648 14.1701 66.6206 16.1123 66.4921 18.0605M62.9878 1C66.7237 2.44552 69.8571 5.11838 71.8735 8.57973C73.8899 12.0411 74.6694 16.0852 74.0841 20.048" stroke="black" stroke-width="2" stroke-linecap="round" stroke-linejoin="round"/>
<path d="M17.0856 8.58697C15.3286 9.43837 13.8656 10.7947 12.8838 12.4824C11.9021 14.1701 11.4463 16.1123 11.5748 18.0605M15.0791 1C11.3432 2.44552 8.20977 5.11838 6.1934 8.57973C4.17702 12.0411 3.3975 16.0852 3.98284 20.048" stroke="black" stroke-width="2" stroke-linecap="round" stroke-linejoin="round"/>
</svg>
