<svg width="40" height="40" viewBox="0 0 40 40" fill="none" xmlns="http://www.w3.org/2000/svg">
<path d="M32.6248 20.5718V36.237H7.56055V20.5718" stroke="#333333" stroke-width="1.50386" stroke-linecap="round" stroke-linejoin="round"/>
<path d="M35.7601 12.739H4.42969V20.5716H35.7601V12.739Z" stroke="#333333" stroke-width="1.50386" stroke-linecap="round" stroke-linejoin="round"/>
<path d="M20.0938 36.2368V12.739" stroke="#333333" stroke-width="1.50386" stroke-linecap="round" stroke-linejoin="round"/>
<path d="M20.0936 12.7396H13.0442C12.0056 12.7396 11.0094 12.327 10.275 11.5925C9.54054 10.8581 9.12793 9.86195 9.12793 8.82328C9.12793 7.78461 9.54054 6.78849 10.275 6.05404C11.0094 5.31959 12.0056 4.90698 13.0442 4.90698C18.527 4.90698 20.0936 12.7396 20.0936 12.7396Z" stroke="#333333" stroke-width="1.50386" stroke-linecap="round" stroke-linejoin="round"/>
<path d="M20.0938 12.7396H27.1431C28.1818 12.7396 29.1779 12.327 29.9123 11.5925C30.6468 10.8581 31.0594 9.86195 31.0594 8.82328C31.0594 7.78461 30.6468 6.78849 29.9123 6.05404C29.1779 5.31959 28.1818 4.90698 27.1431 4.90698C21.6603 4.90698 20.0938 12.7396 20.0938 12.7396Z" stroke="#333333" stroke-width="1.50386" stroke-linecap="round" stroke-linejoin="round"/>
</svg>
