<svg width="40" height="40" viewBox="0 0 40 40" fill="none" xmlns="http://www.w3.org/2000/svg">
<path d="M6.82467 32.4684C6.64929 32.7841 6.70715 33.1782 6.96589 33.4301C7.22462 33.682 7.62007 33.7294 7.93098 33.5457L11.9368 31.1786C13.8296 31.8552 15.9121 32.2284 18.0954 32.2284C26.5936 32.2284 33.7526 26.5052 33.7526 19.1426C33.7526 11.7801 26.5936 6.05693 18.0954 6.05693C9.59722 6.05693 2.43828 11.7801 2.43828 19.1426C2.43828 23.3876 4.84366 27.1099 8.48596 29.4781L6.82467 32.4684Z" stroke="#333333" stroke-width="1.6" stroke-linejoin="round"/>
<path d="M32.0476 13.2292C35.606 14.9411 38 18.1407 38 21.8053C38 25.1555 35.9992 28.117 32.9371 29.9085L34.5659 32.8571L31.0936 30.7936C29.5738 31.3791 27.8804 31.7059 26.0952 31.7059C25.0246 31.7059 23.987 31.5883 23 31.3679" stroke="#333333" stroke-width="1.6" stroke-linecap="round" stroke-linejoin="round"/>
<circle cx="13.2375" cy="19.0476" r="0.952381" fill="#2C2C2C"/>
<circle cx="17.9993" cy="19.0476" r="0.952381" fill="#2C2C2C"/>
<circle cx="22.761" cy="19.0476" r="0.952381" fill="#2C2C2C"/>
</svg>
