<svg width="41" height="40" viewBox="0 0 41 40" fill="none" xmlns="http://www.w3.org/2000/svg">
<path d="M32.4926 20.5718V35.237H9.02832V20.5718" stroke="#555555" stroke-width="1.40786" stroke-linecap="round" stroke-linejoin="round"/>
<path d="M35.4271 13.239H6.09668V20.5716H35.4271V13.239Z" stroke="#555555" stroke-width="1.40786" stroke-linecap="round" stroke-linejoin="round"/>
<path d="M20.7607 35.2368V13.239" stroke="#555555" stroke-width="1.40786" stroke-linecap="round" stroke-linejoin="round"/>
<path d="M20.7598 13.2396H14.1604C13.1881 13.2396 12.2555 12.8533 11.568 12.1657C10.8804 11.4782 10.4941 10.5456 10.4941 9.57328C10.4941 8.60092 10.8804 7.66838 11.568 6.98082C12.2555 6.29325 13.1881 5.90698 14.1604 5.90698C19.2933 5.90698 20.7598 13.2396 20.7598 13.2396Z" stroke="#555555" stroke-width="1.40786" stroke-linecap="round" stroke-linejoin="round"/>
<path d="M20.7607 13.2396H27.3601C28.3324 13.2396 29.265 12.8533 29.9525 12.1657C30.6401 11.4782 31.0264 10.5456 31.0264 9.57328C31.0264 8.60092 30.6401 7.66838 29.9525 6.98082C29.265 6.29325 28.3324 5.90698 27.3601 5.90698C22.2273 5.90698 20.7607 13.2396 20.7607 13.2396Z" stroke="#555555" stroke-width="1.40786" stroke-linecap="round" stroke-linejoin="round"/>
</svg>
