<svg width="72" height="72" viewBox="0 0 72 72" fill="none" xmlns="http://www.w3.org/2000/svg">
<path d="M60.1711 37.0285V67.0285H12.1711V37.0285M36.1712 67.0285V22.0285M36.1712 22.0285L22.6714 22.0286C20.6823 22.0286 18.7746 21.2384 17.3681 19.8319C15.9616 18.4253 15.1714 16.5177 15.1714 14.5286C15.1714 12.5394 15.9616 10.6318 17.3681 9.22526C18.7746 7.81874 20.6823 7.02856 22.6714 7.02856C33.1714 7.02856 36.1712 22.0285 36.1712 22.0285ZM36.1712 22.0285L49.6712 22.0286C51.6603 22.0286 53.568 21.2384 54.9745 19.8319C56.381 18.4253 57.1712 16.5177 57.1712 14.5286C57.1712 12.5394 56.381 10.6318 54.9745 9.22526C53.568 7.81874 51.6603 7.02856 49.6712 7.02856C39.1712 7.02856 36.1712 22.0285 36.1712 22.0285ZM6.17139 22.0285H66.1714V37.0285H6.17139V22.0285Z" stroke="#2C2C2C" stroke-width="2" stroke-linecap="round" stroke-linejoin="round"/>
</svg>
