<svg width="551" height="101" viewBox="0 0 551 101" fill="none" xmlns="http://www.w3.org/2000/svg">
<g clip-path="url(#clip0_915_28019)">
<path d="M242.16 16.97H208.7V83.81H225.65V63.89V59.32C225.65 59.32 249.83 60.65 256.65 51.62C261.74 45.8 262.03 36.52 259.93 29.33C257.15 21.16 251.06 16.96 242.15 16.97H242.16ZM244.08 47.08C240.11 51.76 231.37 51.7 225.55 51.3L225.61 24.5C225.61 24.5 240.67 22.4 244.64 29.24C246.93 33.33 247.47 42.54 244.07 47.09L244.08 47.08ZM100.11 94.71C94.04 92.45 85.33 85.71 80.31 79.54C73.82 72.13 58.29 51.23 58.29 51.23C50.3 40.92 39.61 23.79 29.04 15.16V83.67H38.48V49.09C45.12 57.56 52.91 68.39 58.74 75.23C61.31 78.3 67.94 85.48 69.82 87.06C81.97 98.91 104.28 104.22 122.89 97.72V97.07C116.49 98.44 108.24 97.94 100.12 94.7L100.11 94.71ZM42.57 21C49.06 28.41 64.59 49.31 64.59 49.31C72.58 59.62 83.27 76.75 93.84 85.38V16.87H84.4V51.45C77.76 42.98 69.97 32.15 64.14 25.31C61.57 22.24 54.94 15.06 53.06 13.48C40.92 1.61996 18.61 -3.70004 0 2.79996V3.44996C6.4 2.07996 14.65 2.57996 22.78 5.81996C28.85 8.07996 37.56 14.82 42.58 20.99L42.57 21ZM149.07 24.45L149.12 16.97H103.35V83.81H149.12L149.07 76.33C140.3 76.55 129.3 77.94 120.28 77.06V53.06C127.59 52.67 136.47 52.8 143.26 53.43V45.5C136.35 46.38 127.65 46.31 120.28 45.85V23.77C129.3 22.84 140.31 24.28 149.07 24.45ZM196.39 51.33C188.66 44.63 179.27 42.53 172.65 37.99C168 34.41 168.72 29.78 171.07 27.28C176.64 21.07 188.26 24 190.96 24.63C194.38 25.64 196.22 26.71 199.49 28.17V19.79C185.63 15.75 163.45 11.89 154.7 25.84C151.48 31.58 150.65 41.99 159.9 48.04C169.23 55.46 184.55 59.01 186.45 65C187.62 68.27 186.21 71.41 184.01 73.63C175.72 81.31 162.44 76.49 153.86 72.68L153.84 80.95C163.13 85.12 174.88 86.19 185.3 83.94C192.45 82.35 200.46 76.05 201.74 68.28C203.05 60.62 201.42 55.61 196.37 51.33H196.39ZM322.63 80.32L320.56 76.39C316.12 68.1 312.57 61.16 308.68 52.17C309.09 51.88 309 52.02 310.16 51.46C316.35 48.51 320.45 43.16 320.34 33.92C320.05 22.58 309.68 16.96 300.63 16.97H266.73V83.81H283.77V56.19H293.46C296.69 61.58 303.27 76.9 304.3 79.31L306.31 83.81H324.48L322.84 80.7C322.77 80.58 322.71 80.45 322.64 80.32H322.63ZM301.62 44.43C297.62 49.23 289.35 48.88 283.62 48.86V24.37C283.62 24.37 298.18 22.19 302.19 29.19C304.26 33.11 304.51 40.48 301.62 44.43ZM517.88 15.96C513.45 15.93 484.8 16.4 484.68 50.13C484.68 83.62 512.97 84.95 517.88 84.91C522.77 84.94 551.09 83.61 551.01 50.13C550.96 16.4 522.34 15.93 517.89 15.96H517.88ZM517.99 75.59H517.74C515.88 75.59 502.19 76.17 502.28 48.84C502.39 23.49 515.7 24.21 517.89 24.21C520.09 24.21 533.38 23.49 533.5 48.84C533.6 76.17 519.89 75.59 517.99 75.59ZM423.34 51.32C415.61 44.62 406.22 42.52 399.6 37.98C394.95 34.4 395.66 29.77 398.02 27.27C403.59 21.06 415.21 23.99 417.91 24.62C421.33 25.63 423.17 26.7 426.44 28.16V19.78C412.59 15.74 390.4 11.88 381.65 25.83C378.44 31.57 377.6 41.98 386.86 48.03C396.19 55.45 411.51 59 413.41 64.99C414.58 68.26 413.17 71.4 410.97 73.62C402.69 81.3 389.4 76.48 380.82 72.67L380.8 80.94C390.09 85.11 401.84 86.18 412.26 83.93C419.41 82.34 427.42 76.04 428.71 68.27C430.02 60.61 428.39 55.6 423.34 51.32ZM475.24 51.32C467.53 44.62 458.13 42.52 451.55 37.98C446.88 34.4 447.58 29.77 449.92 27.27C455.48 21.06 467.09 23.99 469.81 24.62C473.25 25.63 475.1 26.7 478.36 28.16V19.78C464.47 15.74 442.3 11.88 433.56 25.83C430.31 31.57 429.47 41.98 438.77 48.03C448.13 55.45 463.44 59 465.3 64.99C466.5 68.26 465.12 71.4 462.85 73.62C454.6 81.3 441.3 76.48 432.75 72.67L432.69 80.94C442 85.11 453.74 86.18 464.18 83.93C471.37 82.34 479.34 76.04 480.68 68.27C481.93 60.61 480.31 55.6 475.24 51.32ZM330.1 83.8H375.83V76.32C367.02 76.54 356.02 77.93 347.02 77.05V53.05C354.32 52.66 363.22 52.79 370.04 53.42V45.49C363.07 46.37 354.39 46.3 347 45.84C347 44.42 347.02 23.76 347.02 23.76C356.02 22.83 367.02 24.27 375.83 24.44V16.96H330.1V83.8Z" fill="black"/>
</g>
<defs>
<clipPath id="clip0_915_28019">
<rect width="551" height="100.53" fill="white"/>
</clipPath>
</defs>
</svg>
