<svg width="224" height="36" viewBox="0 0 224 36" fill="none" xmlns="http://www.w3.org/2000/svg">
<path d="M1.116 31.302C0.578667 31.302 0.31 30.8267 0.31 29.876C0.31 29.0907 0.496 28.326 0.868 27.582C1.81867 25.7633 2.68667 23.9653 3.472 22.188C4.00933 21.1133 4.50533 20.08 4.96 19.088C5.456 18.096 5.91067 17.1867 6.324 16.36C6.572 16.112 6.82 15.988 7.068 15.988C7.60533 15.988 7.77067 16.236 7.564 16.732C7.48133 17.0213 7.35733 17.3727 7.192 17.786C7.068 18.158 6.90267 18.6127 6.696 19.15C6.03467 20.886 5.642 22.1053 5.518 22.808C6.67533 21.7747 7.85333 20.824 9.052 19.956C10.292 19.0467 11.4493 18.3027 12.524 17.724C13.5987 17.1453 14.508 16.856 15.252 16.856C15.9133 16.856 16.244 17.1247 16.244 17.662C16.244 18.1167 16.0373 18.6127 15.624 19.15C15.2107 19.646 14.7973 19.894 14.384 19.894C14.1773 19.894 14.012 19.832 13.888 19.708C13.764 19.6667 13.516 19.646 13.144 19.646C11.8213 19.646 10.4367 20.2867 8.99 21.568C7.46067 22.8493 6.076 24.3993 4.836 26.218C3.596 27.9953 2.68667 29.5453 2.108 30.868C1.81867 31.1573 1.488 31.302 1.116 31.302ZM19.7325 16.422C19.1951 16.422 18.9265 16.298 18.9265 16.05C18.9265 15.8433 19.0711 15.554 19.3605 15.182C19.6911 14.7687 20.0631 14.4173 20.4765 14.128C21.3858 13.5493 22.0885 13.0533 22.5845 12.64C23.1218 12.2267 23.7625 11.524 24.5065 10.532C24.5478 10.6147 24.5685 10.78 24.5685 11.028C24.5685 11.5653 24.3411 12.2267 23.8865 13.012C23.4731 13.756 22.9978 14.438 22.4605 15.058C21.9231 15.678 21.4478 16.0707 21.0345 16.236C20.6625 16.36 20.2285 16.422 19.7325 16.422ZM14.2145 31.612C13.8838 31.612 13.5738 31.488 13.2845 31.24C12.9951 30.992 12.8505 30.6613 12.8505 30.248C12.8505 29.38 13.4498 27.7887 14.6485 25.474L15.3305 24.11C15.4131 24.0273 15.5165 23.8207 15.6405 23.49C15.8058 23.1593 16.0331 22.7253 16.3225 22.188C16.6118 21.6093 16.8391 21.0927 17.0045 20.638C17.1698 20.1833 17.2938 19.7493 17.3765 19.336C17.3765 19.2947 17.4591 19.212 17.6245 19.088C17.7898 18.964 17.9551 18.8607 18.1205 18.778L18.4925 18.716C18.8231 18.716 19.0918 18.778 19.2985 18.902C19.5465 19.026 19.6291 19.1913 19.5465 19.398C19.2571 20.018 19.0091 20.5553 18.8025 21.01C18.5958 21.4647 18.4305 21.8573 18.3065 22.188H18.2445C17.7898 23.2213 17.3971 24.2133 17.0665 25.164C16.7771 26.0733 16.6531 26.9413 16.6945 27.768L16.7565 29.442C16.7151 29.8553 16.5705 30.2067 16.3225 30.496C16.1571 30.62 15.9298 30.7647 15.6405 30.93C15.3511 31.1367 14.9791 31.3433 14.5245 31.55C14.4831 31.5913 14.3798 31.612 14.2145 31.612ZM18.5157 32.604C17.8544 32.604 17.2757 32.542 16.7797 32.418C16.3251 32.294 16.0977 32.1287 16.0977 31.922C16.0977 31.5913 16.4284 31.4053 17.0897 31.364C17.7097 31.3227 18.1231 31.2607 18.3297 31.178C18.7017 31.0953 19.1357 31.0333 19.6317 30.992C20.0864 30.9093 20.4584 30.8473 20.7477 30.806C22.7317 30.2273 23.7237 29.3387 23.7237 28.14C23.7237 27.3133 23.2897 26.2593 22.4217 24.978C21.8844 24.1927 21.6157 23.3247 21.6157 22.374C21.6157 21.2167 21.9671 20.08 22.6697 18.964C23.4137 17.848 24.3231 16.8767 25.3977 16.05C26.5137 15.182 27.6297 14.6033 28.7457 14.314C29.2417 14.19 29.7584 14.128 30.2957 14.128C31.1637 14.128 31.7837 14.3347 32.1557 14.748C32.4037 14.996 32.5277 15.5333 32.5277 16.36C32.5277 16.98 32.4244 17.6207 32.2177 18.282C32.0111 18.902 31.7217 19.4187 31.3497 19.832C31.1431 20.0387 30.9777 20.142 30.8537 20.142C30.6471 20.142 30.5437 19.8527 30.5437 19.274L30.6057 18.034C30.6471 17.7033 30.6677 17.414 30.6677 17.166C30.7091 16.918 30.7297 16.7113 30.7297 16.546C30.7297 15.8433 30.5851 15.43 30.2957 15.306C29.9651 15.2233 29.7377 15.182 29.6137 15.182C28.7457 15.182 27.8157 15.5747 26.8237 16.36C25.8317 17.1453 25.0257 18.0547 24.4057 19.088C24.1577 19.46 24.0337 19.9147 24.0337 20.452C24.0337 21.1133 24.1991 21.8987 24.5297 22.808C24.9017 23.676 25.1704 24.3167 25.3357 24.73C25.7491 25.6393 26.0591 26.4247 26.2657 27.086C26.5137 27.7473 26.6377 28.326 26.6377 28.822C26.6377 29.07 26.6171 29.256 26.5757 29.38C26.7824 29.2973 27.2784 29.1733 28.0637 29.008C28.7664 28.8427 29.3657 28.76 29.8617 28.76C30.1511 28.76 30.2957 28.822 30.2957 28.946C30.2957 28.9873 30.1717 29.132 29.9237 29.38C29.7997 29.504 29.4071 29.7107 28.7457 30C28.1257 30.248 27.3817 30.5167 26.5137 30.806C25.6871 31.0953 24.8604 31.364 24.0337 31.612C23.2071 31.86 22.5044 32.046 21.9257 32.17C20.9337 32.4593 19.7971 32.604 18.5157 32.604ZM32.6755 35.766C32.4688 35.766 32.3655 35.58 32.3655 35.208C32.3655 35.1253 32.3655 35.0013 32.3655 34.836C32.4068 34.712 32.4481 34.5673 32.4895 34.402L35.1555 27.706L38.3175 19.894C37.8215 19.8527 37.0981 19.8733 36.1475 19.956C35.1968 19.9973 34.3908 20.08 33.7295 20.204C33.4815 20.2453 33.2748 20.2867 33.1095 20.328C32.9855 20.328 32.8821 20.328 32.7995 20.328C32.4688 20.328 32.2415 20.1833 32.1175 19.894C32.1588 19.646 32.3861 19.4187 32.7995 19.212C33.0061 19.1293 33.2541 19.0673 33.5435 19.026C33.8328 18.9433 34.1841 18.8607 34.5975 18.778C35.0521 18.6953 35.4448 18.6333 35.7755 18.592C36.1475 18.5507 36.4161 18.5093 36.5815 18.468C36.7881 18.4267 36.9948 18.3853 37.2015 18.344C37.4081 18.3027 37.6561 18.2613 37.9455 18.22C38.1935 18.1787 38.4621 18.1373 38.7515 18.096C39.0408 18.0547 39.3508 17.9927 39.6815 17.91C40.0121 17.4553 40.5081 16.6493 41.1695 15.492C41.8308 14.3347 42.6781 12.8053 43.7115 10.904C44.5381 9.37466 45.1995 8.176 45.6955 7.308C46.2328 6.39867 46.6048 5.79933 46.8115 5.51C47.1835 5.014 47.6175 4.766 48.1135 4.766C48.3615 4.766 48.4855 4.86933 48.4855 5.076C48.4855 5.11733 48.3821 5.386 48.1755 5.882C47.9275 6.29533 47.5141 7.06 46.9355 8.176C46.3568 9.292 45.7368 10.5113 45.0755 11.834C44.4141 13.1567 43.8148 14.3967 43.2775 15.554C42.7401 16.7113 42.3681 17.5587 42.1615 18.096C42.3681 18.0547 42.5955 18.034 42.8435 18.034C43.1328 18.034 43.4841 18.034 43.8975 18.034C44.3521 18.034 44.7655 18.0547 45.1375 18.096C45.5508 18.096 45.9021 18.1167 46.1915 18.158C46.7701 18.282 47.0595 18.4473 47.0595 18.654C47.0595 18.7367 46.8735 18.8813 46.5015 19.088C46.2948 19.1707 45.9021 19.2533 45.3235 19.336C44.7448 19.4187 43.9801 19.5013 43.0295 19.584C42.7815 19.584 42.5128 19.6047 42.2235 19.646C41.9341 19.646 41.6241 19.6667 41.2935 19.708C40.0535 21.7333 38.3588 25.102 36.2095 29.814C35.4241 31.3847 34.8248 32.604 34.4115 33.472C33.9981 34.34 33.7501 34.8567 33.6675 35.022C33.2955 35.518 32.9648 35.766 32.6755 35.766ZM44.5887 31.302C44.0513 31.302 43.7827 30.8267 43.7827 29.876C43.7827 29.0907 43.9687 28.326 44.3407 27.582C45.2913 25.7633 46.1593 23.9653 46.9447 22.188C47.482 21.1133 47.978 20.08 48.4327 19.088C48.9287 18.096 49.3833 17.1867 49.7967 16.36C50.0447 16.112 50.2927 15.988 50.5407 15.988C51.078 15.988 51.2433 16.236 51.0367 16.732C50.954 17.0213 50.83 17.3727 50.6647 17.786C50.5407 18.158 50.3753 18.6127 50.1687 19.15C49.5073 20.886 49.1147 22.1053 48.9907 22.808C50.148 21.7747 51.326 20.824 52.5247 19.956C53.7647 19.0467 54.922 18.3027 55.9967 17.724C57.0713 17.1453 57.9807 16.856 58.7247 16.856C59.386 16.856 59.7167 17.1247 59.7167 17.662C59.7167 18.1167 59.51 18.6127 59.0967 19.15C58.6833 19.646 58.27 19.894 57.8567 19.894C57.65 19.894 57.4847 19.832 57.3607 19.708C57.2367 19.6667 56.9887 19.646 56.6167 19.646C55.294 19.646 53.9093 20.2867 52.4627 21.568C50.9333 22.8493 49.5487 24.3993 48.3087 26.218C47.0687 27.9953 46.1593 29.5453 45.5807 30.868C45.2913 31.1573 44.9607 31.302 44.5887 31.302ZM60.3531 30.682C59.4851 30.682 58.7205 30.4547 58.0591 30C56.9845 29.1733 56.4471 27.9333 56.4471 26.28C56.4471 24.6267 57.0258 22.87 58.1831 21.01C59.3405 19.15 61.0971 17.4347 63.4531 15.864C63.8665 15.5747 64.4245 15.43 65.1271 15.43C66.0365 15.43 66.8425 15.678 67.5451 16.174C68.2891 16.67 68.5785 17.3107 68.4131 18.096C68.1238 19.3773 67.4831 20.514 66.4911 21.506C65.5405 22.498 64.4038 23.3867 63.0811 24.172C61.7998 24.916 60.4771 25.6393 59.1131 26.342C59.0718 26.466 59.0305 26.59 58.9891 26.714C58.9891 26.838 58.9891 26.962 58.9891 27.086C58.9891 27.6647 59.1751 28.1813 59.5471 28.636C59.9605 29.0493 60.5185 29.256 61.2211 29.256C61.7585 29.256 62.2131 29.1733 62.5851 29.008C63.2465 28.76 63.7838 28.5327 64.1971 28.326C64.6518 28.1193 65.1685 27.8093 65.7471 27.396C66.3258 26.9827 67.1111 26.3627 68.1031 25.536C68.5578 25.2053 68.8265 25.04 68.9091 25.04C69.1571 25.04 69.2398 25.226 69.1571 25.598C68.7438 26.2593 68.0205 26.9827 66.9871 27.768C65.9951 28.5533 64.8791 29.2353 63.6391 29.814C62.4405 30.3927 61.3451 30.682 60.3531 30.682ZM59.4851 24.668C59.8158 24.668 60.4978 24.3373 61.5311 23.676C62.5645 23.0147 63.5358 22.2913 64.4451 21.506C66.0158 20.0593 66.8011 18.9433 66.8011 18.158C66.8011 17.9513 66.7391 17.7653 66.6151 17.6C66.4911 17.3933 66.3051 17.29 66.0571 17.29C65.2718 17.29 63.9491 18.22 62.0891 20.08C60.8078 21.32 59.9398 22.8493 59.4851 24.668ZM69.7301 35.766C69.5235 35.766 69.4201 35.58 69.4201 35.208C69.4201 35.1253 69.4201 35.0013 69.4201 34.836C69.4615 34.712 69.5028 34.5673 69.5441 34.402L72.2101 27.706L75.3721 19.894C74.8761 19.8527 74.1528 19.8733 73.2021 19.956C72.2515 19.9973 71.4455 20.08 70.7841 20.204C70.5361 20.2453 70.3295 20.2867 70.1641 20.328C70.0401 20.328 69.9368 20.328 69.8541 20.328C69.5235 20.328 69.2961 20.1833 69.1721 19.894C69.2135 19.646 69.4408 19.4187 69.8541 19.212C70.0608 19.1293 70.3088 19.0673 70.5981 19.026C70.8875 18.9433 71.2388 18.8607 71.6521 18.778C72.1068 18.6953 72.4995 18.6333 72.8301 18.592C73.2021 18.5507 73.4708 18.5093 73.6361 18.468C73.8428 18.4267 74.0495 18.3853 74.2561 18.344C74.4628 18.3027 74.7108 18.2613 75.0001 18.22C75.2481 18.1787 75.5168 18.1373 75.8061 18.096C76.0955 18.0547 76.4055 17.9927 76.7361 17.91C77.0668 17.4553 77.5628 16.6493 78.2241 15.492C78.8855 14.3347 79.7328 12.8053 80.7661 10.904C81.5928 9.37466 82.2541 8.176 82.7501 7.308C83.2875 6.39867 83.6595 5.79933 83.8661 5.51C84.2381 5.014 84.6721 4.766 85.1681 4.766C85.4161 4.766 85.5401 4.86933 85.5401 5.076C85.5401 5.11733 85.4368 5.386 85.2301 5.882C84.9821 6.29533 84.5688 7.06 83.9901 8.176C83.4115 9.292 82.7915 10.5113 82.1301 11.834C81.4688 13.1567 80.8695 14.3967 80.3321 15.554C79.7948 16.7113 79.4228 17.5587 79.2161 18.096C79.4228 18.0547 79.6501 18.034 79.8981 18.034C80.1875 18.034 80.5388 18.034 80.9521 18.034C81.4068 18.034 81.8201 18.0547 82.1921 18.096C82.6055 18.096 82.9568 18.1167 83.2461 18.158C83.8248 18.282 84.1141 18.4473 84.1141 18.654C84.1141 18.7367 83.9281 18.8813 83.5561 19.088C83.3495 19.1707 82.9568 19.2533 82.3781 19.336C81.7995 19.4187 81.0348 19.5013 80.0841 19.584C79.8361 19.584 79.5675 19.6047 79.2781 19.646C78.9888 19.646 78.6788 19.6667 78.3481 19.708C77.1081 21.7333 75.4135 25.102 73.2641 29.814C72.4788 31.3847 71.8795 32.604 71.4661 33.472C71.0528 34.34 70.8048 34.8567 70.7221 35.022C70.3501 35.518 70.0195 35.766 69.7301 35.766ZM82.2633 35.766C82.0567 35.766 81.9533 35.58 81.9533 35.208C81.9533 35.1253 81.9533 35.0013 81.9533 34.836C81.9947 34.712 82.036 34.5673 82.0773 34.402L84.7433 27.706L87.9053 19.894C87.4093 19.8527 86.686 19.8733 85.7353 19.956C84.7847 19.9973 83.9787 20.08 83.3173 20.204C83.0693 20.2453 82.8627 20.2867 82.6973 20.328C82.5733 20.328 82.47 20.328 82.3873 20.328C82.0567 20.328 81.8293 20.1833 81.7053 19.894C81.7467 19.646 81.974 19.4187 82.3873 19.212C82.594 19.1293 82.842 19.0673 83.1313 19.026C83.4207 18.9433 83.772 18.8607 84.1853 18.778C84.64 18.6953 85.0327 18.6333 85.3633 18.592C85.7353 18.5507 86.004 18.5093 86.1693 18.468C86.376 18.4267 86.5827 18.3853 86.7893 18.344C86.996 18.3027 87.244 18.2613 87.5333 18.22C87.7813 18.1787 88.05 18.1373 88.3393 18.096C88.6287 18.0547 88.9387 17.9927 89.2693 17.91C89.6 17.4553 90.096 16.6493 90.7573 15.492C91.4187 14.3347 92.266 12.8053 93.2993 10.904C94.126 9.37466 94.7873 8.176 95.2833 7.308C95.8207 6.39867 96.1927 5.79933 96.3993 5.51C96.7713 5.014 97.2053 4.766 97.7013 4.766C97.9493 4.766 98.0733 4.86933 98.0733 5.076C98.0733 5.11733 97.97 5.386 97.7633 5.882C97.5153 6.29533 97.102 7.06 96.5233 8.176C95.9447 9.292 95.3247 10.5113 94.6633 11.834C94.002 13.1567 93.4027 14.3967 92.8653 15.554C92.328 16.7113 91.956 17.5587 91.7493 18.096C91.956 18.0547 92.1833 18.034 92.4313 18.034C92.7207 18.034 93.072 18.034 93.4853 18.034C93.94 18.034 94.3533 18.0547 94.7253 18.096C95.1387 18.096 95.49 18.1167 95.7793 18.158C96.358 18.282 96.6473 18.4473 96.6473 18.654C96.6473 18.7367 96.4613 18.8813 96.0893 19.088C95.8827 19.1707 95.49 19.2533 94.9113 19.336C94.3327 19.4187 93.568 19.5013 92.6173 19.584C92.3693 19.584 92.1007 19.6047 91.8113 19.646C91.522 19.646 91.212 19.6667 90.8813 19.708C89.6413 21.7333 87.9467 25.102 85.7973 29.814C85.012 31.3847 84.4127 32.604 83.9993 33.472C83.586 34.34 83.338 34.8567 83.2553 35.022C82.8833 35.518 82.5527 35.766 82.2633 35.766ZM96.2225 31.054C94.6105 31.054 93.8045 30.3307 93.8045 28.884C93.8045 28.8013 93.8045 28.6567 93.8045 28.45C93.8459 28.2433 93.8872 27.9953 93.9285 27.706C94.3419 26.0113 95.1685 24.3787 96.4085 22.808C97.6899 21.196 99.1572 19.7907 100.811 18.592C101.431 18.096 102.423 17.848 103.787 17.848C104.572 17.848 105.254 17.972 105.833 18.22C106.453 18.4267 106.887 18.7573 107.135 19.212C107.383 19.6253 107.507 20.1007 107.507 20.638C107.507 20.7207 107.486 20.8447 107.445 21.01C107.445 21.1753 107.424 21.3613 107.383 21.568C107.465 21.5267 107.589 21.506 107.755 21.506C107.961 21.506 108.209 21.4853 108.499 21.444C108.788 21.4027 109.057 21.3613 109.305 21.32C109.594 21.2787 109.883 21.258 110.173 21.258H110.421C110.875 21.258 110.917 21.444 110.545 21.816C110.214 22.1467 109.759 22.3533 109.181 22.436L107.073 22.684C106.659 23.8413 105.936 24.9987 104.903 26.156C103.911 27.3133 102.795 28.326 101.555 29.194C100.356 30.0207 99.2192 30.558 98.1445 30.806C97.5245 30.9713 96.8839 31.054 96.2225 31.054ZM104.159 21.816C104.407 21.816 104.696 21.816 105.027 21.816C105.399 21.7747 105.812 21.7333 106.267 21.692C106.308 21.6093 106.329 21.4233 106.329 21.134C106.329 20.39 106.019 19.8733 105.399 19.584C105.068 19.3773 104.655 19.274 104.159 19.274C103.539 19.274 102.898 19.4807 102.237 19.894C101.617 20.266 100.955 20.762 100.253 21.382C101.121 21.6713 102.423 21.816 104.159 21.816ZM98.0825 28.884C98.4959 28.884 99.0745 28.698 99.8185 28.326C100.604 27.9127 101.41 27.3753 102.237 26.714C103.063 26.0527 103.807 25.35 104.469 24.606C104.675 24.3993 104.882 24.1513 105.089 23.862C105.295 23.5313 105.523 23.2007 105.771 22.87L104.283 23.056C101.968 23.3867 99.9012 23.5727 98.0825 23.614C97.1732 25.102 96.6152 26.342 96.4085 27.334C96.3672 27.8713 96.5119 28.264 96.8425 28.512C97.1732 28.76 97.5865 28.884 98.0825 28.884ZM122.519 31.24C121.527 31.24 120.762 30.93 120.225 30.31C119.729 29.7313 119.481 28.9667 119.481 28.016C119.481 26.3213 120.101 24.668 121.341 23.056C122.333 21.7747 123.428 20.6173 124.627 19.584C125.867 18.5093 127.065 17.662 128.223 17.042C129.421 16.3807 130.434 16.05 131.261 16.05C132.046 16.05 132.563 16.3807 132.811 17.042C132.976 17.3727 133.059 17.7653 133.059 18.22C133.059 19.0467 132.749 19.46 132.129 19.46C131.839 19.46 131.571 19.336 131.323 19.088C131.116 18.7987 131.013 18.406 131.013 17.91C130.558 17.7033 129.938 17.8067 129.153 18.22C128.409 18.592 127.623 19.15 126.797 19.894C125.97 20.5967 125.185 21.3613 124.441 22.188C123.697 22.9733 123.118 23.6553 122.705 24.234C121.961 25.2673 121.589 26.404 121.589 27.644C121.589 28.2227 121.733 28.698 122.023 29.07C122.312 29.442 122.746 29.628 123.325 29.628C123.862 29.628 124.503 29.4627 125.247 29.132C125.784 28.8427 126.28 28.574 126.735 28.326C127.231 28.078 127.685 27.8507 128.099 27.644C130.661 26.1973 132.108 25.474 132.439 25.474C132.563 25.474 132.625 25.536 132.625 25.66C132.625 25.784 132.521 25.9493 132.315 26.156C131.901 26.528 131.24 27.0447 130.331 27.706C129.421 28.3673 128.45 28.9873 127.417 29.566C126.383 30.1447 125.433 30.5787 124.565 30.868C123.779 31.116 123.097 31.24 122.519 31.24ZM134.202 34.092C133.748 34.092 133.355 33.9473 133.024 33.658C132.735 33.3687 132.611 33.0173 132.652 32.604C132.735 30.9093 133.045 29.2767 133.582 27.706C134.161 26.1353 134.988 24.2547 136.062 22.064C136.186 21.7747 136.29 21.5267 136.372 21.32C136.496 21.072 136.6 20.8653 136.682 20.7C137.592 18.7573 138.522 16.8973 139.472 15.12C140.423 13.3427 141.374 11.6067 142.324 9.912L143.192 8.362C144.184 6.58467 145.052 5.15867 145.796 4.084C146.54 2.968 147.284 2.162 148.028 1.666C148.979 1.08733 149.558 0.797999 149.764 0.797999C150.095 0.797999 150.426 1.08733 150.756 1.666C150.963 2.07933 150.55 3.092 149.516 4.704C148.979 5.53067 148.297 6.564 147.47 7.804C146.685 9.044 145.734 10.4493 144.618 12.02C144.412 12.3093 144.06 12.826 143.564 13.57C143.11 14.2727 142.49 15.2027 141.704 16.36C140.919 17.5173 140.237 18.5713 139.658 19.522C139.08 20.4313 138.604 21.2373 138.232 21.94C137.488 23.304 136.786 24.7713 136.124 26.342C135.463 27.8713 135.132 29.07 135.132 29.938C135.132 30.7233 135.442 31.116 136.062 31.116C137.054 31.116 138.646 30.2687 140.836 28.574C141.084 28.6153 141.208 28.7393 141.208 28.946C141.208 29.1113 141.002 29.4007 140.588 29.814C140.216 30.186 139.741 30.5787 139.162 30.992C138.625 31.4467 137.984 31.9633 137.24 32.542L136.248 33.286C135.587 33.8233 134.905 34.092 134.202 34.092ZM153.379 31.674C153.296 31.674 153.213 31.6533 153.131 31.612C153.048 31.612 152.965 31.5913 152.883 31.55C152.304 31.2607 151.932 30.8473 151.767 30.31C151.601 29.7727 151.56 29.0907 151.643 28.264C151.725 27.9333 151.808 27.3547 151.891 26.528C152.015 25.7013 152.159 25.04 152.325 24.544L149.163 27.582L147.427 29.256C146.228 30.4547 145.236 31.054 144.451 31.054C144.12 31.054 143.851 30.93 143.645 30.682C143.273 30.2273 143.087 29.6693 143.087 29.008C143.087 28.14 143.314 27.21 143.769 26.218C144.223 25.226 144.761 24.2753 145.381 23.366C146.001 22.4153 146.559 21.63 147.055 21.01C148.295 19.4807 149.493 18.282 150.651 17.414C151.849 16.546 153.089 16.112 154.371 16.112C155.073 16.112 155.755 16.236 156.417 16.484C157.119 16.732 157.76 17.1453 158.339 17.724L158.401 17.786C158.401 17.91 158.297 18.034 158.091 18.158C158.008 18.2407 157.925 18.3027 157.843 18.344C157.801 18.3853 157.76 18.4267 157.719 18.468C157.223 18.964 156.665 19.7907 156.045 20.948C155.425 22.1053 154.887 23.3247 154.433 24.606C153.978 25.846 153.751 26.9207 153.751 27.83C153.751 28.6567 153.957 29.2147 154.371 29.504C154.577 29.628 154.805 29.69 155.053 29.69C155.59 29.69 156.334 29.3593 157.285 28.698C157.326 28.6567 157.409 28.5947 157.533 28.512C157.698 28.388 157.925 28.2227 158.215 28.016C158.545 27.768 158.814 27.644 159.021 27.644C159.227 27.644 159.331 27.7267 159.331 27.892C159.331 28.14 159.165 28.4293 158.835 28.76C158.587 28.9667 158.297 29.194 157.967 29.442C157.677 29.69 157.326 29.938 156.913 30.186C156.293 30.6407 155.652 30.992 154.991 31.24C154.329 31.5293 153.792 31.674 153.379 31.674ZM146.373 27.706C147.241 27.706 148.853 26.4247 151.209 23.862C151.829 23.1593 152.387 22.498 152.883 21.878C153.379 21.2167 153.833 20.576 154.247 19.956C154.991 18.7573 155.239 17.9307 154.991 17.476C154.867 17.228 154.619 17.104 154.247 17.104C153.792 17.104 153.172 17.352 152.387 17.848C151.601 18.3027 150.795 18.902 149.969 19.646C149.183 20.39 148.46 21.134 147.799 21.878C147.344 22.4567 146.889 23.2627 146.435 24.296C145.98 25.3293 145.753 26.1767 145.753 26.838C145.753 27.4167 145.959 27.706 146.373 27.706ZM160.074 32.604C159.413 32.604 158.834 32.542 158.338 32.418C157.884 32.294 157.656 32.1287 157.656 31.922C157.656 31.5913 157.987 31.4053 158.648 31.364C159.268 31.3227 159.682 31.2607 159.888 31.178C160.26 31.0953 160.694 31.0333 161.19 30.992C161.645 30.9093 162.017 30.8473 162.306 30.806C164.29 30.2273 165.282 29.3387 165.282 28.14C165.282 27.3133 164.848 26.2593 163.98 24.978C163.443 24.1927 163.174 23.3247 163.174 22.374C163.174 21.2167 163.526 20.08 164.228 18.964C164.972 17.848 165.882 16.8767 166.956 16.05C168.072 15.182 169.188 14.6033 170.304 14.314C170.8 14.19 171.317 14.128 171.854 14.128C172.722 14.128 173.342 14.3347 173.714 14.748C173.962 14.996 174.086 15.5333 174.086 16.36C174.086 16.98 173.983 17.6207 173.776 18.282C173.57 18.902 173.28 19.4187 172.908 19.832C172.702 20.0387 172.536 20.142 172.412 20.142C172.206 20.142 172.102 19.8527 172.102 19.274L172.164 18.034C172.206 17.7033 172.226 17.414 172.226 17.166C172.268 16.918 172.288 16.7113 172.288 16.546C172.288 15.8433 172.144 15.43 171.854 15.306C171.524 15.2233 171.296 15.182 171.172 15.182C170.304 15.182 169.374 15.5747 168.382 16.36C167.39 17.1453 166.584 18.0547 165.964 19.088C165.716 19.46 165.592 19.9147 165.592 20.452C165.592 21.1133 165.758 21.8987 166.088 22.808C166.46 23.676 166.729 24.3167 166.894 24.73C167.308 25.6393 167.618 26.4247 167.824 27.086C168.072 27.7473 168.196 28.326 168.196 28.822C168.196 29.07 168.176 29.256 168.134 29.38C168.341 29.2973 168.837 29.1733 169.622 29.008C170.325 28.8427 170.924 28.76 171.42 28.76C171.71 28.76 171.854 28.822 171.854 28.946C171.854 28.9873 171.73 29.132 171.482 29.38C171.358 29.504 170.966 29.7107 170.304 30C169.684 30.248 168.94 30.5167 168.072 30.806C167.246 31.0953 166.419 31.364 165.592 31.612C164.766 31.86 164.063 32.046 163.484 32.17C162.492 32.4593 161.356 32.604 160.074 32.604ZM172.002 32.604C171.341 32.604 170.762 32.542 170.266 32.418C169.811 32.294 169.584 32.1287 169.584 31.922C169.584 31.5913 169.915 31.4053 170.576 31.364C171.196 31.3227 171.609 31.2607 171.816 31.178C172.188 31.0953 172.622 31.0333 173.118 30.992C173.573 30.9093 173.945 30.8473 174.234 30.806C176.218 30.2273 177.21 29.3387 177.21 28.14C177.21 27.3133 176.776 26.2593 175.908 24.978C175.371 24.1927 175.102 23.3247 175.102 22.374C175.102 21.2167 175.453 20.08 176.156 18.964C176.9 17.848 177.809 16.8767 178.884 16.05C180 15.182 181.116 14.6033 182.232 14.314C182.728 14.19 183.245 14.128 183.782 14.128C184.65 14.128 185.27 14.3347 185.642 14.748C185.89 14.996 186.014 15.5333 186.014 16.36C186.014 16.98 185.911 17.6207 185.704 18.282C185.497 18.902 185.208 19.4187 184.836 19.832C184.629 20.0387 184.464 20.142 184.34 20.142C184.133 20.142 184.03 19.8527 184.03 19.274L184.092 18.034C184.133 17.7033 184.154 17.414 184.154 17.166C184.195 16.918 184.216 16.7113 184.216 16.546C184.216 15.8433 184.071 15.43 183.782 15.306C183.451 15.2233 183.224 15.182 183.1 15.182C182.232 15.182 181.302 15.5747 180.31 16.36C179.318 17.1453 178.512 18.0547 177.892 19.088C177.644 19.46 177.52 19.9147 177.52 20.452C177.52 21.1133 177.685 21.8987 178.016 22.808C178.388 23.676 178.657 24.3167 178.822 24.73C179.235 25.6393 179.545 26.4247 179.752 27.086C180 27.7473 180.124 28.326 180.124 28.822C180.124 29.07 180.103 29.256 180.062 29.38C180.269 29.2973 180.765 29.1733 181.55 29.008C182.253 28.8427 182.852 28.76 183.348 28.76C183.637 28.76 183.782 28.822 183.782 28.946C183.782 28.9873 183.658 29.132 183.41 29.38C183.286 29.504 182.893 29.7107 182.232 30C181.612 30.248 180.868 30.5167 180 30.806C179.173 31.0953 178.347 31.364 177.52 31.612C176.693 31.86 175.991 32.046 175.412 32.17C174.42 32.4593 173.283 32.604 172.002 32.604ZM191.928 16.422C191.39 16.422 191.122 16.298 191.122 16.05C191.122 15.8433 191.266 15.554 191.556 15.182C191.886 14.7687 192.258 14.4173 192.672 14.128C193.581 13.5493 194.284 13.0533 194.78 12.64C195.317 12.2267 195.958 11.524 196.702 10.532C196.743 10.6147 196.764 10.78 196.764 11.028C196.764 11.5653 196.536 12.2267 196.082 13.012C195.668 13.756 195.193 14.438 194.656 15.058C194.118 15.678 193.643 16.0707 193.23 16.236C192.858 16.36 192.424 16.422 191.928 16.422ZM186.41 31.612C186.079 31.612 185.769 31.488 185.48 31.24C185.19 30.992 185.046 30.6613 185.046 30.248C185.046 29.38 185.645 27.7887 186.844 25.474L187.526 24.11C187.608 24.0273 187.712 23.8207 187.836 23.49C188.001 23.1593 188.228 22.7253 188.518 22.188C188.807 21.6093 189.034 21.0927 189.2 20.638C189.365 20.1833 189.489 19.7493 189.572 19.336C189.572 19.2947 189.654 19.212 189.82 19.088C189.985 18.964 190.15 18.8607 190.316 18.778L190.688 18.716C191.018 18.716 191.287 18.778 191.494 18.902C191.742 19.026 191.824 19.1913 191.742 19.398C191.452 20.018 191.204 20.5553 190.998 21.01C190.791 21.4647 190.626 21.8573 190.502 22.188H190.44C189.985 23.2213 189.592 24.2133 189.262 25.164C188.972 26.0733 188.848 26.9413 188.89 27.768L188.952 29.442C188.91 29.8553 188.766 30.2067 188.518 30.496C188.352 30.62 188.125 30.7647 187.836 30.93C187.546 31.1367 187.174 31.3433 186.72 31.55C186.678 31.5913 186.575 31.612 186.41 31.612ZM195.175 31.24C194.183 31.24 193.418 30.93 192.881 30.31C192.385 29.7313 192.137 28.9667 192.137 28.016C192.137 26.3213 192.757 24.668 193.997 23.056C194.989 21.7747 196.084 20.6173 197.283 19.584C198.523 18.5093 199.722 17.662 200.879 17.042C202.078 16.3807 203.09 16.05 203.917 16.05C204.702 16.05 205.219 16.3807 205.467 17.042C205.632 17.3727 205.715 17.7653 205.715 18.22C205.715 19.0467 205.405 19.46 204.785 19.46C204.496 19.46 204.227 19.336 203.979 19.088C203.772 18.7987 203.669 18.406 203.669 17.91C203.214 17.7033 202.594 17.8067 201.809 18.22C201.065 18.592 200.28 19.15 199.453 19.894C198.626 20.5967 197.841 21.3613 197.097 22.188C196.353 22.9733 195.774 23.6553 195.361 24.234C194.617 25.2673 194.245 26.404 194.245 27.644C194.245 28.2227 194.39 28.698 194.679 29.07C194.968 29.442 195.402 29.628 195.981 29.628C196.518 29.628 197.159 29.4627 197.903 29.132C198.44 28.8427 198.936 28.574 199.391 28.326C199.887 28.078 200.342 27.8507 200.755 27.644C203.318 26.1973 204.764 25.474 205.095 25.474C205.219 25.474 205.281 25.536 205.281 25.66C205.281 25.784 205.178 25.9493 204.971 26.156C204.558 26.528 203.896 27.0447 202.987 27.706C202.078 28.3673 201.106 28.9873 200.073 29.566C199.04 30.1447 198.089 30.5787 197.221 30.868C196.436 31.116 195.754 31.24 195.175 31.24ZM208.719 31.054C207.107 31.054 206.301 30.3307 206.301 28.884C206.301 28.8013 206.301 28.6567 206.301 28.45C206.342 28.2433 206.383 27.9953 206.425 27.706C206.838 26.0113 207.665 24.3787 208.905 22.808C210.186 21.196 211.653 19.7907 213.307 18.592C213.927 18.096 214.919 17.848 216.283 17.848C217.068 17.848 217.75 17.972 218.329 18.22C218.949 18.4267 219.383 18.7573 219.631 19.212C219.879 19.6253 220.003 20.1007 220.003 20.638C220.003 20.7207 219.982 20.8447 219.941 21.01C219.941 21.1753 219.92 21.3613 219.879 21.568C219.961 21.5267 220.085 21.506 220.251 21.506C220.457 21.506 220.705 21.4853 220.995 21.444C221.284 21.4027 221.553 21.3613 221.801 21.32C222.09 21.2787 222.379 21.258 222.669 21.258H222.917C223.371 21.258 223.413 21.444 223.041 21.816C222.71 22.1467 222.255 22.3533 221.677 22.436L219.569 22.684C219.155 23.8413 218.432 24.9987 217.399 26.156C216.407 27.3133 215.291 28.326 214.051 29.194C212.852 30.0207 211.715 30.558 210.641 30.806C210.021 30.9713 209.38 31.054 208.719 31.054ZM216.655 21.816C216.903 21.816 217.192 21.816 217.523 21.816C217.895 21.7747 218.308 21.7333 218.763 21.692C218.804 21.6093 218.825 21.4233 218.825 21.134C218.825 20.39 218.515 19.8733 217.895 19.584C217.564 19.3773 217.151 19.274 216.655 19.274C216.035 19.274 215.394 19.4807 214.733 19.894C214.113 20.266 213.451 20.762 212.749 21.382C213.617 21.6713 214.919 21.816 216.655 21.816ZM210.579 28.884C210.992 28.884 211.571 28.698 212.315 28.326C213.1 27.9127 213.906 27.3753 214.733 26.714C215.559 26.0527 216.303 25.35 216.965 24.606C217.171 24.3993 217.378 24.1513 217.585 23.862C217.791 23.5313 218.019 23.2007 218.267 22.87L216.779 23.056C214.464 23.3867 212.397 23.5727 210.579 23.614C209.669 25.102 209.111 26.342 208.905 27.334C208.863 27.8713 209.008 28.264 209.339 28.512C209.669 28.76 210.083 28.884 210.579 28.884Z" fill="#D9AE92"/>
</svg>
