<svg width="110" height="20" viewBox="0 0 110 20" fill="none" xmlns="http://www.w3.org/2000/svg">
<path d="M7.44857 4.98645H22.3477V0H6.20698C3.18397 0 0.700792 2.16802 0.106988 4.98645C0.0530056 5.42005 -0.000976562 5.79946 -0.000976562 6.23306C-0.000976562 6.66667 0.0530056 7.10027 0.106988 7.47968C0.214952 7.91328 0.322917 8.34688 0.484863 8.72629C0.970703 9.7561 1.61849 10.5691 2.4822 11.2195C3.50787 11.9783 4.80344 12.4661 6.20698 12.4661H14.8981C15.5999 12.4661 16.1397 13.0081 16.1397 13.7127C16.1397 14.4173 15.5999 14.9594 14.8981 14.9594H-0.000976562V19.9458H16.1397C19.1627 19.9458 21.6459 17.7778 22.2397 14.9594C22.2937 14.5799 22.3477 14.1463 22.3477 13.7127C22.3477 13.2791 22.2937 12.8455 22.2397 12.4661C22.1317 12.0325 22.0238 11.5989 21.8618 11.2195C21.43 10.2439 20.7282 9.37669 19.8645 8.72629C18.8388 7.96748 17.5432 7.47968 16.1397 7.47968H7.44857C6.7468 7.47968 6.20698 6.93767 6.20698 6.23306C6.20698 5.52846 6.80078 4.98645 7.44857 4.98645Z" fill="#181818"/>
<path d="M39.7839 0H34.8175C29.3113 0 24.8848 4.44444 24.8848 9.9729C24.8848 15.5014 29.3113 19.9458 34.8175 19.9458H39.7839C45.29 19.9458 49.7166 15.5014 49.7166 9.9729C49.7166 4.44444 45.29 0 39.7839 0ZM39.7839 14.9594H34.8175C32.0644 14.9594 29.8511 12.7371 29.8511 9.9729C29.8511 7.20867 32.0644 4.98645 34.8175 4.98645H39.7839C42.5369 4.98645 44.7502 7.20867 44.7502 9.9729C44.7502 12.7371 42.5369 14.9594 39.7839 14.9594Z" fill="#181818"/>
<path d="M99.4882 14.9594H94.4679C91.7148 14.9594 89.5015 12.7371 89.5015 9.9729C89.5015 7.20867 91.7148 4.98645 94.4679 4.98645H99.4342C101.27 4.98645 102.889 6.01626 103.753 7.47968H109.097C108.017 3.19783 104.077 0 99.4882 0H94.4679C88.9617 0 84.5352 4.44444 84.5352 9.9729C84.5352 15.5014 88.9617 19.9458 94.4679 19.9458H99.4342C104.077 19.9458 107.963 16.748 109.043 12.4661H103.699C102.889 13.9837 101.324 14.9594 99.4882 14.9594Z" fill="#181818"/>
<path d="M52.2002 20H57.1666V0C55.2232 1.95122 54.1436 3.03523 52.2002 4.98645V20Z" fill="#181818"/>
<path d="M57.166 4.98645H64.6695V20H69.6359V4.98645V0H62.1864L57.166 4.98645Z" fill="#181818"/>
<path d="M82.0517 0H74.6021L69.6357 4.98645H77.0853V20H82.0517V4.98645V0Z" fill="#181818"/>
</svg>
